<?xml version="1.0" encoding="UTF-8" standalone="no"?>
<!-- Created with Inkscape (http://www.inkscape.org/) -->

<svg
   xmlns:dc="http://purl.org/dc/elements/1.1/"
   xmlns:cc="http://creativecommons.org/ns#"
   xmlns:rdf="http://www.w3.org/1999/02/22-rdf-syntax-ns#"
   xmlns:svg="http://www.w3.org/2000/svg"
   xmlns="http://www.w3.org/2000/svg"
   xmlns:sodipodi="http://sodipodi.sourceforge.net/DTD/sodipodi-0.dtd"
   xmlns:inkscape="http://www.inkscape.org/namespaces/inkscape"
   width="183.20416"
   height="131.75314"
   viewBox="0 0 183.20415 131.75314"
   id="svg5049"
   version="1.1"
   inkscape:version="0.91 r"
   sodipodi:docname="datestick.svg">
  <defs
     id="defs5051">
    <circle
       transform="translate(172.66087,-7.5051891)"
       id="path4343"
       style="fill:none;stroke:none"
       cx="346.48392"
       cy="334.06454"
       r="68.088387" />
  </defs>
  <sodipodi:namedview
     id="base"
     pagecolor="#ffffff"
     bordercolor="#666666"
     borderopacity="1.0"
     inkscape:pageopacity="0.0"
     inkscape:pageshadow="2"
     inkscape:zoom="2.8"
     inkscape:cx="80.880698"
     inkscape:cy="78.03849"
     inkscape:document-units="px"
     inkscape:current-layer="layer1"
     showgrid="false"
     fit-margin-top="0"
     fit-margin-left="0"
     fit-margin-right="0"
     fit-margin-bottom="0"
     units="px"
     inkscape:window-width="1301"
     inkscape:window-height="744"
     inkscape:window-x="65"
     inkscape:window-y="24"
     inkscape:window-maximized="1" />
  <metadata
     id="metadata5054">
    <rdf:RDF>
      <cc:Work
         rdf:about="">
        <dc:format>image/svg+xml</dc:format>
        <dc:type
           rdf:resource="http://purl.org/dc/dcmitype/StillImage" />
        <dc:title></dc:title>
      </cc:Work>
    </rdf:RDF>
  </metadata>
  <g
     inkscape:label="Layer 1"
     inkscape:groupmode="layer"
     id="layer1"
     transform="translate(-393.39793,-430.47685)"
     style="display:inline">
    <path
       inkscape:connector-curvature="0"
       d="m 443.64149,516.4191 -50.24357,0 10.71793,18.96249 -10.71793,18.96249 50.24357,0 z m 82.71704,0 50.24356,0 -10.71793,18.96249 10.71793,18.96249 -50.24356,0 z"
       style="fill:#000000;fill-opacity:1;stroke:none"
       id="path3374" />
    <path
       sodipodi:nodetypes="cccc"
       inkscape:connector-curvature="0"
       id="path3376"
       d="m 416.4408,524.30498 27.20069,-7.88588 0,8.31184 z"
       style="fill:#ffffff;stroke:none" />
    <path
       style="fill:#ffffff;stroke:none"
       d="m 553.55914,524.30498 -27.20069,-7.88588 0,8.31184 z"
       id="path3378"
       inkscape:connector-curvature="0"
       sodipodi:nodetypes="cccc" />
    <path
       style="fill:#1a1a1a;fill-opacity:1;stroke:none"
       d="m 550.87655,496.35342 a 65.876572,65.876572 0 0 1 -65.87657,65.87657 65.876572,65.876572 0 0 1 -65.87657,-65.87657 65.876572,65.876572 0 0 1 65.87657,-65.87657 65.876572,65.876572 0 0 1 65.87657,65.87657 z"
       id="path3380"
       inkscape:connector-curvature="0" />
    <path
       style="fill:none;stroke:#ffffff;stroke-width:1.06744802;stroke-miterlimit:4;stroke-dasharray:1.06744793, 1.06744793;stroke-dashoffset:0"
       d="m 541.05941,496.35345 a 56.059402,56.059402 0 0 1 -56.0594,56.0594 56.059402,56.059402 0 0 1 -56.05941,-56.0594 56.059402,56.059402 0 0 1 56.05941,-56.0594 56.059402,56.059402 0 0 1 56.0594,56.0594 z"
       id="path3382"
       inkscape:connector-curvature="0" />
    <path
       sodipodi:nodetypes="cccc"
       inkscape:connector-curvature="0"
       id="path3384"
       d="M 433.47417,562.22996 416.4408,524.30498 414.40038,561.647 Z"
       style="fill:#ffffff;stroke:none" />
    <path
       style="fill:none;stroke:#ffffff;stroke-width:1.15538394"
       d="m 545.67925,496.35342 a 60.679245,60.679245 0 0 1 -60.67924,60.67924 60.679245,60.679245 0 0 1 -60.67925,-60.67924 60.679245,60.679245 0 0 1 60.67925,-60.67925 60.679245,60.679245 0 0 1 60.67924,60.67925 z"
       id="path3386"
       inkscape:connector-curvature="0" />
    <path
       style="fill:#ffffff;stroke:none"
       d="m 536.52577,562.22996 17.03337,-37.92498 2.04042,37.34202 z"
       id="path3388"
       inkscape:connector-curvature="0"
       sodipodi:nodetypes="cccc" />
    <path
       style="fill:#000000;fill-opacity:1;stroke:none"
       d="m 416.4408,524.30499 137.11835,0 0,37.92498 -137.11835,0 z"
       id="rect3390"
       inkscape:connector-curvature="0" />
    <path
       inkscape:connector-curvature="0"
       d="m 478.12579,456.63253 c 0.031,0.0222 -0.97765,-2.55452 -0.93955,-2.55476 0.0381,-2.4e-4 -0.9385,2.58879 -0.90782,2.5662 0.0307,-0.0226 -2.7316,0.1404 -2.72004,0.10411 0.0113,-0.0362 2.17207,1.69257 2.16007,1.65639 -0.0125,-0.0361 -0.71058,2.6413 -0.74155,2.61909 -0.031,-0.0222 2.28092,-1.54274 2.24281,-1.5425 -0.0381,2.4e-4 2.29244,1.49201 2.26175,1.5146 -0.0307,0.0226 -0.76238,-2.64602 -0.77393,-2.60972 -0.0113,0.0364 2.12739,-1.71918 2.13938,-1.683 0.0125,0.0361 -2.75209,-0.0926 -2.72112,-0.0704 z m 15.59472,0 c 0.031,0.0222 -0.97765,-2.55452 -0.93954,-2.55476 0.0381,-2.4e-4 -0.9385,2.58879 -0.90782,2.5662 0.0307,-0.0226 -2.7316,0.1404 -2.72005,0.10411 0.0113,-0.0362 2.17207,1.69257 2.16007,1.65639 -0.0125,-0.0361 -0.71057,2.6413 -0.74154,2.61909 -0.031,-0.0222 2.28091,-1.54274 2.2428,-1.5425 -0.0381,2.4e-4 2.29245,1.49201 2.26175,1.5146 -0.0307,0.0226 -0.76238,-2.64602 -0.77393,-2.60972 -0.0113,0.0364 2.1274,-1.71918 2.13939,-1.683 0.0125,0.0361 -2.7521,-0.0926 -2.72113,-0.0704 z m -7.79737,-5.44578 c 0.031,0.0222 -0.97764,-2.55452 -0.93953,-2.55476 0.0381,-2.4e-4 -0.93852,2.58879 -0.90782,2.5662 0.0307,-0.0226 -2.7316,0.1404 -2.72005,0.10411 0.0113,-0.0362 2.17206,1.69257 2.16007,1.65639 -0.0125,-0.0361 -0.71059,2.6413 -0.74156,2.61909 -0.031,-0.0222 2.28093,-1.54273 2.24282,-1.5425 -0.0381,2.4e-4 2.29244,1.49201 2.26175,1.5146 -0.0307,0.0226 -0.76238,-2.64601 -0.77393,-2.6097 -0.0113,0.0364 2.12738,-1.71918 2.13939,-1.68302 0.0125,0.0361 -2.75211,-0.0926 -2.72114,-0.0704 z"
       style="fill:#d4aa00;fill-opacity:1;stroke:none"
       id="path3408" />
  </g>
</svg>
