<?xml version="1.0" encoding="UTF-8" standalone="no"?>
<svg
   xmlns:dc="http://purl.org/dc/elements/1.1/"
   xmlns:cc="http://creativecommons.org/ns#"
   xmlns:rdf="http://www.w3.org/1999/02/22-rdf-syntax-ns#"
   xmlns:svg="http://www.w3.org/2000/svg"
   xmlns="http://www.w3.org/2000/svg"
   width="14.111112mm"
   height="14.111103mm"
   viewBox="0 0 50.000001 49.999973"
   id="svg4381"
   version="1.1">
  <defs
     id="defs4383" />
  <metadata
     id="metadata4386">
    <rdf:RDF>
      <cc:Work
         rdf:about="">
        <dc:format>image/svg+xml</dc:format>
        <dc:type
           rdf:resource="http://purl.org/dc/dcmitype/StillImage" />
        <dc:title></dc:title>
      </cc:Work>
    </rdf:RDF>
  </metadata>
  <g
     id="layer1"
     transform="matrix(0.38251352,0,0,0.38251352,-61.33877,-158.96362)">
    <circle
       style="opacity:1;fill:#00d4aa;fill-opacity:1;stroke:none;stroke-width:1;stroke-linecap:round;stroke-linejoin:round;stroke-miterlimit:4;stroke-dasharray:none;stroke-dashoffset:0;stroke-opacity:1"
       id="path4291"
       cx="225.71425"
       cy="480.93362"
       r="65.35714" />
    <path
       style="opacity:1;fill:#217867;fill-opacity:1;stroke:none;stroke-width:1;stroke-linecap:round;stroke-linejoin:round;stroke-miterlimit:4;stroke-dasharray:none;stroke-dashoffset:0;stroke-opacity:1"
       d="m 257.70037,438.88727 0,64.4668 -63.97266,-2.14258 0,31.87109 32.54883,13.18946 a 65.35714,65.35714 0 0 0 64.79492,-65.33789 65.35714,65.35714 0 0 0 -8.13281,-31.42579 l -25.23828,-10.62109 z"
       id="circle4369" />
    <g
       id="g4299"
       transform="translate(-208.78137,305.48749)">
      <g
         id="text4158"
         style="font-style:normal;font-variant:normal;font-weight:normal;font-stretch:normal;font-size:9.74314594px;line-height:125%;font-family:Lora;-inkscape-font-specification:'Lora, Normal';text-align:start;letter-spacing:0px;word-spacing:0px;writing-mode:lr-tb;text-anchor:start;fill:#ffffff;fill-opacity:1;stroke:none;stroke-width:1px;stroke-linecap:butt;stroke-linejoin:miter;stroke-opacity:1"
         transform="matrix(0.44597615,0,0,0.42161408,273.16715,-7.9796598)">
        <path
           d="m 373.27178,493.64084 0,-6.70317 1.40343,0 0,5.61848 3.5966,0 0,1.08469 -5.00003,0 z m -6.50811,0 0,-6.70317 5.27119,0 0,1.08468 -3.86776,0 0,1.68412 3.57756,0 0,1.08469 -3.57756,0 0,1.76499 4.06281,0 0,1.08469 -5.46624,0 z m -2.93056,-5.61849 0,5.61849 -1.40343,0 0,-5.61849 -2.16462,0 0,-1.08468 5.73742,0 0,1.08468 -2.16937,0 z m -4.08185,2.23598 q 0,0.78497 -0.23311,1.42722 -0.23311,0.64225 -0.67079,1.09896 -0.43768,0.45671 -1.07041,0.70409 -0.62798,0.24739 -1.42247,0.24739 -0.84205,0 -1.47479,-0.2569 -0.62797,-0.26166 -1.05138,-0.72313 -0.42341,-0.46622 -0.63749,-1.10371 -0.20933,-0.63749 -0.20933,-1.39392 0,-0.78497 0.21884,-1.4177 0.2236,-0.63274 0.65176,-1.07517 0.43293,-0.4472 1.0609,-0.68507 0.63274,-0.24263 1.45101,-0.24263 0.81827,0 1.44625,0.24263 0.63273,0.24263 1.0609,0.68982 0.43292,0.4472 0.65652,1.07993 0.22359,0.62798 0.22359,1.40819 z m -1.43197,0 q 0,-0.52807 -0.12845,-0.95148 -0.12369,-0.42816 -0.37108,-0.73264 -0.24738,-0.30447 -0.6137,-0.46622 -0.36156,-0.16651 -0.84206,-0.16651 -0.49001,0 -0.86109,0.16651 -0.36632,0.16175 -0.6137,0.46622 -0.24739,0.30448 -0.37108,0.73264 -0.12369,0.42341 -0.12369,0.95148 0,0.52331 0.12369,0.96099 0.12845,0.43293 0.37583,0.74692 0.24739,0.31398 0.61371,0.49001 0.36632,0.17602 0.84681,0.17602 0.5138,0 0.88488,-0.17602 0.37108,-0.18078 0.60895,-0.49477 0.24262,-0.31875 0.3568,-0.75167 0.11418,-0.43768 0.11418,-0.95148 z m -7.80213,3.38251 0,-2.87347 -2.92104,0 0,2.87347 -1.40343,0 0,-6.70317 1.40343,0 0,2.6689 2.92104,0 0,-2.6689 1.40343,0 0,6.70317 -1.40343,0 z m 31.47685,3.26305 a 20.257351,20.702475 0 0 0 -10.12867,-17.92887 20.257351,20.702475 0 0 0 -20.25735,0 20.257351,20.702475 0 0 0 -10.12868,17.92887 l 20.25736,0 z m 0.25633,1.04717 a 2.7671518,2.9135032 0 0 1 -1.38357,2.52317 2.7671518,2.9135032 0 0 1 -2.76716,0 2.7671518,2.9135032 0 0 1 -1.38357,-2.52317 l 2.76715,0 z m -5.92718,0 a 2.7671518,2.9135032 0 0 1 -1.38358,2.52317 2.7671518,2.9135032 0 0 1 -2.76715,0 2.7671518,2.9135032 0 0 1 -1.38357,-2.52317 l 2.76715,0 z m -5.92718,0 a 2.7671518,2.9135032 0 0 1 -1.38358,2.52317 2.7671518,2.9135032 0 0 1 -2.76715,0 2.7671518,2.9135032 0 0 1 -1.38357,-2.52317 l 2.76715,0 z m -5.92718,0 a 2.7671518,2.9135032 0 0 1 -1.38358,2.52317 2.7671518,2.9135032 0 0 1 -2.76715,0 2.7671518,2.9135032 0 0 1 -1.38357,-2.52317 l 2.76715,0 z m -5.92717,0 a 2.7671518,2.9135032 0 0 1 -1.38358,2.52317 2.7671518,2.9135032 0 0 1 -2.76716,0 2.7671518,2.9135032 0 0 1 -1.38357,-2.52317 l 2.76715,0 z m -5.92718,0 a 2.7671518,2.9135032 0 0 1 -1.38358,2.52317 2.7671518,2.9135032 0 0 1 -2.76715,0 2.7671518,2.9135032 0 0 1 -1.38357,-2.52317 l 2.76715,0 z m -5.92718,0 a 2.7671518,2.9135032 0 0 1 -1.38357,2.52317 2.7671518,2.9135032 0 0 1 -2.76715,0 2.7671518,2.9135032 0 0 1 -1.38358,-2.52317 l 2.76715,0 z m -56.66744,-162.62455 0,223.41844 50.54457,0 0,-60.99201 -0.019,0 a 21.195231,22.305787 0 0 1 10.59848,-19.31826 21.195231,22.305787 0 0 1 11.09794,-2.981 21.195231,22.305787 0 0 1 10.09713,2.981 21.195231,22.305787 0 0 1 10.59849,19.31826 l -0.0171,0 0,60.99201 50.54458,0 0,-223.41844 -143.44512,0 z m 13.04634,11.55641 23.70179,0 0,24.73588 -23.70179,0 0,-24.73588 z m 31.40805,0 23.7018,0 0,24.73588 -23.7018,0 0,-24.73588 z m 31.40995,0 23.6999,0 0,24.73588 -23.6999,0 0,-24.73588 z m 31.40806,0 23.69989,0 0,24.73588 -23.69989,0 0,-24.73588 z m -93.91843,33.11844 23.6999,0 0,24.73589 -23.6999,0 0,-24.73589 z m 31.40806,0 23.6999,0 0,24.73589 -23.6999,0 0,-24.73589 z m 31.40805,0 23.7018,0 0,24.73589 -23.7018,0 0,-24.73589 z m 31.40806,0 23.70179,0 0,24.73589 -23.70179,0 0,-24.73589 z m -94.22417,33.44387 23.6999,0 0,24.73588 -23.6999,0 0,-24.73588 z m 31.40806,0 23.6999,0 0,24.73588 -23.6999,0 0,-24.73588 z m 31.40805,0 23.7018,0 0,24.73588 -23.7018,0 0,-24.73588 z m 31.40806,0 23.70179,0 0,24.73588 -23.70179,0 0,-24.73588 z m -94.5318,32.79303 23.70179,0 0,24.73588 -23.70179,0 0,-24.73588 z m 31.40805,0 23.7018,0 0,24.73588 -23.7018,0 0,-24.73588 z m 31.40995,0 23.6999,0 0,24.73588 -23.6999,0 0,-24.73588 z m 31.40806,0 23.69989,0 0,24.73588 -23.69989,0 0,-24.73588 z"
           style="font-style:normal;font-variant:normal;font-weight:bold;font-stretch:normal;font-family:arial;-inkscape-font-specification:'arial Bold';fill:#ffffff"
           id="path4286" />
      </g>
      <rect
         y="121.38268"
         x="413.51349"
         height="10.535714"
         width="41.964287"
         id="rect4297"
         style="opacity:1;fill:#ffffff;fill-opacity:1;stroke:none;stroke-width:1;stroke-linecap:round;stroke-linejoin:round;stroke-miterlimit:4;stroke-dasharray:none;stroke-dashoffset:0;stroke-opacity:1" />
    </g>
  </g>
</svg>
