<?xml version="1.0" encoding="UTF-8" standalone="no"?>
<svg
   xmlns:dc="http://purl.org/dc/elements/1.1/"
   xmlns:cc="http://creativecommons.org/ns#"
   xmlns:rdf="http://www.w3.org/1999/02/22-rdf-syntax-ns#"
   xmlns:svg="http://www.w3.org/2000/svg"
   xmlns="http://www.w3.org/2000/svg"
   id="svg3453"
   height="23.76376"
   width="32"
   version="1.1">
  <title
     id="title3575">Pamala e Henrique</title>
  <defs
     id="defs3455" />
  <metadata
     id="metadata3458">
    <rdf:RDF>
      <cc:Work
         rdf:about="">
        <dc:format>image/svg+xml</dc:format>
        <dc:type
           rdf:resource="http://purl.org/dc/dcmitype/StillImage" />
        <dc:title>Pamala e Henrique</dc:title>
        <dc:date>07/09/2015</dc:date>
        <dc:creator>
          <cc:Agent>
            <dc:title>Henrique Schumann Costa</dc:title>
          </cc:Agent>
        </dc:creator>
      </cc:Work>
    </rdf:RDF>
  </metadata>
  <g
     transform="matrix(0.05857918,0,0,0.05857918,-5.9265649,-17.127662)"
     id="layer1">
    <g
       id="g3917"
       transform="translate(2068.065,92.700156)">
      <path
         style="fill:none;stroke:#ffffff;stroke-width:1.0004431;stroke-miterlimit:4;stroke-dasharray:1.00044305, 3.00132916;stroke-dashoffset:0"
         id="path4044"
         transform="matrix(1.049535,0,0,1.049535,-2226.2906,12.670208)"
         d="m 667.50879,371.44922 a 157.68481,157.68481 0 1 1 -315.36963,0 157.68481,157.68481 0 1 1 315.36963,0 z" />
      <path
         style="fill:#000000;stroke:#cccccc;stroke-width:1.5;stroke-miterlimit:4;stroke-dasharray:none"
         id="path4033"
         d="m -1826.0435,479.32847 -123.7583,22.9318 15.0853,-46.66297 -30.8026,-38.16017 123.7583,-22.9318 z" />
      <path
         style="fill:#241c1c;stroke:none"
         id="path3996"
         transform="matrix(0.99185586,0,0,0.99185586,-2211.4409,50.812558)"
         d="m 729,354.59448 a 204.5,204.5 0 1 1 -409,0 204.5,204.5 0 1 1 409,0 z" />
      <path
         style="fill:#ececec;fill-opacity:1;stroke:none"
         id="path4035"
         d="m -1904.9495,482.68783 50.4154,3.43905 -2.4564,-13.25681 z" />
      <path
         style="fill:#000000;stroke:#b3b3b3;stroke-width:1.60000002;stroke-miterlimit:4;stroke-dasharray:none"
         id="rect4028"
         d="m -1561.5653,316.73008 123.7584,-22.9318 -15.0853,46.66297 30.8026,38.16017 -123.7584,22.9318 z" />
      <path
         style="fill:#ececec;fill-opacity:1;stroke:none"
         id="path4031"
         d="m -1481.2354,314.58245 -50.4325,-3.51559 2.4564,13.25681 z" />
      <path
         style="fill:#c8ab37;stroke:none"
         id="path3911"
         d="m -1546.9379,539.82391 -23.1344,5.89142 -9.7332,21.79844 -23.86,0.78049 -14.1917,19.19645 -23.4699,-4.36695 -17.9865,15.69684 -21.9825,-9.31018 -20.9404,11.46328 -19.4671,-13.81809 -22.915,6.69372 -16.0415,-17.67989 -23.8183,1.61115 -11.8658,-20.71498 -23.6078,-3.54675 -7.1353,-22.78146 -22.2934,-8.53881 -2.0711,-23.78272 -19.9366,-13.1316 3.0899,-23.67192 -16.6476,-17.11036 8.1065,-22.45425 -12.5802,-20.28908 12.7439,-20.18663 -7.9245,-22.5191 16.7855,-16.97511 -2.8983,-23.69615 20.0422,-12.96987 2.2634,-23.76518 22.3618,-8.35816 7.3193,-22.723 23.6358,-3.35563 12.0329,-20.6183 23.8045,1.8038 16.184,-17.54952 22.8602,6.87889 19.5783,-13.66015 20.8469,11.63234 22.0571,-9.13204 17.8589,15.84186 23.5045,-4.17692 14.0359,19.31063 23.8529,0.97351 9.5566,21.87646 23.0859,6.07841 4.6303,23.41938 21.2395,10.89909 -0.5124,23.86723 18.4,15.21014 -5.6312,23.19908 14.7001,18.80998 -10.4867,21.44617 10.3128,21.53029 -14.8517,18.69045 5.4433,23.24387 -18.5225,15.06078 0.3193,23.87059 -21.327,10.7269 z" />
      <path
         style="fill:#c8ab37;stroke:none"
         id="path3913"
         d="m -1546.9379,539.82391 -23.1344,5.89142 -9.7332,21.79844 -23.86,0.78049 -14.1917,19.19645 -23.4699,-4.36695 -17.9865,15.69684 -21.9825,-9.31018 -20.9404,11.46328 -19.4671,-13.81809 -22.915,6.69372 -16.0415,-17.67989 -23.8183,1.61115 -11.8658,-20.71498 -23.6078,-3.54675 -7.1353,-22.78146 -22.2934,-8.53881 -2.0711,-23.78272 -19.9366,-13.1316 3.0899,-23.67192 -16.6476,-17.11036 8.1065,-22.45425 -12.5802,-20.28908 12.7439,-20.18663 -7.9245,-22.5191 16.7855,-16.97511 -2.8983,-23.69615 20.0422,-12.96987 2.2634,-23.76518 22.3618,-8.35816 7.3193,-22.723 23.6358,-3.35563 12.0329,-20.6183 23.8045,1.8038 16.184,-17.54952 22.8602,6.87889 19.5783,-13.66015 20.8469,11.63234 22.0571,-9.13204 17.8589,15.84186 23.5045,-4.17692 14.0359,19.31063 23.8529,0.97351 9.5566,21.87646 23.0859,6.07841 4.6303,23.41938 21.2395,10.89909 -0.5124,23.86723 18.4,15.21014 -5.6312,23.19908 14.7001,18.80998 -10.4867,21.44617 10.3128,21.53029 -14.8517,18.69045 5.4433,23.24387 -18.5225,15.06078 0.3193,23.87059 -21.327,10.7269 z" />
      <path
         style="fill:#c8ab37;stroke:none"
         id="path3994"
         d="m -1546.9379,539.82391 -23.1344,5.89142 -9.7332,21.79844 -23.86,0.78048 -14.1917,19.19645 -23.4699,-4.36694 -17.9865,15.69684 -21.9825,-9.31019 -20.9404,11.46329 -19.4671,-13.8181 -22.915,6.69373 -16.0415,-17.67989 -23.8183,1.61115 -11.8658,-20.71498 -23.6078,-3.54675 -7.1353,-22.78146 -22.2934,-8.53881 -2.0711,-23.78273 -19.9366,-13.13159 3.0899,-23.67192 -16.6476,-17.11036 8.1064,-22.45425 -12.5801,-20.28908 12.7439,-20.18664 -7.9245,-22.51909 16.7855,-16.97511 -2.8983,-23.69615 20.0422,-12.96987 2.2634,-23.76519 22.3618,-8.35815 7.3193,-22.723 23.6358,-3.35563 12.0329,-20.6183 23.8045,1.8038 16.184,-17.54952 22.8602,6.87889 19.5783,-13.66015 20.8469,11.63233 22.0571,-9.13203 17.8589,15.84186 23.5045,-4.17692 14.0359,19.31063 23.8529,0.9735 9.5565,21.87647 23.086,6.07841 4.6303,23.41938 21.2395,10.89909 -0.5124,23.86723 18.4,15.21014 -5.6312,23.19908 14.7001,18.80998 -10.4867,21.44616 10.3128,21.5303 -14.8517,18.69045 5.4432,23.24387 -18.5224,15.06078 0.3193,23.87059 -21.327,10.7269 z" />
      <path
         style="color:#000000;font-style:normal;font-variant:normal;font-weight:normal;font-stretch:normal;font-size:medium;line-height:normal;font-family:Sans;-inkscape-font-specification:Sans;text-indent:0;text-align:start;text-decoration:none;text-decoration-line:none;letter-spacing:normal;word-spacing:normal;text-transform:none;direction:ltr;block-progression:tb;writing-mode:lr-tb;baseline-shift:baseline;text-anchor:start;display:inline;overflow:visible;visibility:visible;fill:#b3b3b3;fill-opacity:1;fill-rule:nonzero;stroke:none;stroke-width:1.79999995;marker:none;enable-background:accumulate"
         id="rect4019"
         d="m -1920.9996,396.06853 0.1651,0.89109 15.7199,84.83713 0.1651,0.89108 0.8603,-0.15942 438.0436,-81.16724 0.8603,-0.15942 -0.1651,-0.89108 -15.7199,-84.83714 -0.1651,-0.89108 -0.8604,0.15942 -438.0435,81.16725 -0.8603,0.15941 z m 2.0816,1.45764 436.2614,-80.83702 15.3896,83.05497 -436.2613,80.83702 -15.3897,-83.05497 z" />
      <path
         style="fill:#000000;stroke:#b3b3b3;stroke-width:1.35398555;stroke-miterlimit:4;stroke-dasharray:none"
         id="path3990"
         transform="matrix(1.1299973,0,0,1.1299973,-2267.3122,-17.217472)"
         d="m 667.50879,371.44922 a 157.68481,157.68481 0 1 1 -315.36963,0 157.68481,157.68481 0 1 1 315.36963,0 z" />
      <path
         style="color:#000000;font-style:normal;font-variant:normal;font-weight:normal;font-stretch:normal;font-size:medium;line-height:normal;font-family:Sans;-inkscape-font-specification:Sans;text-indent:0;text-align:start;text-decoration:none;text-decoration-line:none;letter-spacing:normal;word-spacing:normal;text-transform:none;direction:ltr;block-progression:tb;writing-mode:lr-tb;baseline-shift:baseline;text-anchor:start;display:inline;overflow:visible;visibility:visible;fill:#ffffff;fill-opacity:1;stroke:none;stroke-width:1.0004431;marker:none;enable-background:accumulate"
         id="path4026"
         d="m -1690.9622,237.56588 1.1152,0 0,-1.04953 -1.1152,0 z m -4.3949,0.0328 1.1151,0 -0.033,-1.04954 -1.0823,0 z m 8.7899,0.0328 1.0823,0.0328 0.066,-1.04954 -1.1151,-0.0328 z m -13.1848,-0.91835 -0.066,0 0.066,1.04954 0.033,0 0.033,0 1.0495,-0.0328 -0.066,-1.04953 z m 17.5797,1.08234 1.0823,0.0656 0.066,-1.04953 -1.0823,-0.0656 z m -21.8107,-0.81995 -0.2296,0.0328 0.098,1.04953 0.1968,-0.0328 0.033,0 0.8528,-0.0656 -0.066,-1.01674 z m 26.1728,1.11513 1.1151,0.0984 0.098,-1.04953 -1.1151,-0.0984 z m -30.3709,-0.72156 -0.4264,0.0328 0.098,1.04954 0.4264,-0.0656 0.656,-0.0328 -0.098,-1.04953 z m 34.7658,1.14793 1.0824,0.0984 0.1312,-1.01674 -1.1152,-0.13119 z m -38.9311,-0.68875 -0.033,0 -0.6232,0.0984 0.1312,1.04953 0.6559,-0.0984 0.4264,-0.0656 -0.098,-1.01673 z m 43.2933,1.21352 1.0823,0.13119 0.164,-1.01673 -1.1151,-0.16399 z m -47.4259,-0.62316 -0.033,0 -0.8855,0.13119 0.1967,1.04954 0.8528,-0.16399 0.033,0 0.164,0 -0.1312,-1.04954 z m 51.7552,1.24632 1.1151,0.19679 0.164,-1.04954 -1.0823,-0.16399 z m -57.0029,-0.36078 0.1968,1.04954 1.0824,-0.22959 -0.1968,-1.01673 z m 61.3322,1.14793 1.0824,0.19679 0.1968,-1.04953 -1.0824,-0.19679 z m -65.6943,-0.26238 0.2296,1.01674 1.0823,-0.22959 -0.2296,-1.04953 z m 70.0237,1.11513 1.0823,0.22959 0.1968,-1.01674 -1.0495,-0.22959 z m -74.3202,-0.13119 0.2624,1.01674 1.0495,-0.26239 -0.2296,-1.01674 z m 78.5839,1.11513 1.0823,0.26238 0.2296,-1.01673 -1.0495,-0.26239 z m -82.8805,-0.0328 0.2952,1.01674 1.0496,-0.29518 -0.2624,-1.01674 z m 87.1442,1.14793 1.0496,0.29518 0.2952,-1.01674 -1.0824,-0.29518 z m -91.3751,0.0656 0.2952,1.01673 1.0495,-0.32798 -0.2952,-1.01673 z m 95.6061,1.14793 1.0495,0.32797 0.2952,-1.01673 -1.0495,-0.32798 z m -99.837,0.16398 0.3279,1.01674 1.0496,-0.36078 -0.328,-0.98393 z m 104.0023,1.18073 0.82,0.26239 0.033,0 0.1968,0.0656 0.3607,-0.98394 -0.2296,-0.0984 -0.8527,-0.26239 z m -108.1677,0.26239 0.328,0.98393 1.0495,-0.36077 -0.3607,-0.98394 z m 112.3331,1.14792 0.4919,0.19679 0.5248,0.19679 0.3936,-0.98394 -0.5576,-0.19679 -0.492,-0.19678 z m -116.4984,0.39358 0.3936,0.98394 1.0167,-0.39358 -0.3608,-0.98394 z m 120.5981,1.18073 0.164,0.0328 0.8527,0.36078 0.3936,-0.95114 -0.8527,-0.36078 -0.033,0 -0.1312,-0.0656 z m -124.6979,0.49197 0.4264,0.95114 1.0167,-0.39358 -0.3935,-0.98394 z m 128.7649,1.14793 1.0167,0.45917 0.4264,-0.98394 -1.0168,-0.42638 z m -132.7334,0.59036 -0.066,0.0328 0.4264,0.95114 0.066,-0.0328 0.033,0 0.8855,-0.42637 -0.3936,-0.95114 z m 136.7675,1.18073 0.9839,0.49197 0.4592,-0.95115 -1.0167,-0.49197 z m -140.4081,0.52476 -0.4264,0.19679 0.4592,0.95114 0.4264,-0.22958 0,0.0328 0.5575,-0.26238 -0.4591,-0.98394 z m 144.3767,1.37752 0.9839,0.49197 0.4592,-0.95114 -0.984,-0.49197 z m -147.9845,0.39357 -0.7871,0.42638 0.4919,0.91834 0.7544,-0.39358 0.033,0 0.1968,-0.0984 -0.492,-0.95114 z m 151.8874,1.57431 0.984,0.52476 0.4919,-0.91834 -0.9839,-0.52477 z m -156.5775,0.91834 0.5248,0.91834 0.9511,-0.52477 -0.4919,-0.91834 z m 160.4477,1.18073 0.9839,0.52476 0.492,-0.91834 -0.9512,-0.52477 z m -164.285,1.01673 0.5575,0.91835 0.9512,-0.55757 -0.5576,-0.91834 z m 168.0895,1.18073 0.9512,0.55757 0.5575,-0.91835 -0.9511,-0.55756 z m -171.8613,1.11513 0.5576,0.88555 0.9511,-0.55757 -0.5576,-0.91834 z m 175.6331,1.18073 0.9184,0.55756 0.5575,-0.88554 -0.9183,-0.59037 z m -179.3393,1.21352 0.5576,0.88555 0.9183,-0.62316 -0.5575,-0.85275 z m 183.0127,1.14793 0.7871,0.52477 0.033,0.0328 0.098,0.0656 0.5904,-0.88554 -0.098,-0.0656 -0.033,0 -0.7872,-0.52477 z m -186.6861,1.34472 0.6232,0.85275 0.8855,-0.62317 -0.5903,-0.85274 z m 190.3267,1.14793 0.4263,0.32798 0,-0.0328 0.4592,0.32798 0.6232,-0.81995 -0.4592,-0.36078 -0.4592,-0.29518 z m -193.9016,1.44311 0.6231,0.85274 0.8856,-0.65595 -0.6232,-0.85275 z m 197.4437,1.14793 0.098,0.0656 0.7872,0.59037 0.6231,-0.81995 -0.7871,-0.62316 -0.098,-0.0656 z m -200.9531,1.5415 0.6231,0.81995 0.8856,-0.68876 -0.6232,-0.81995 z m 204.4297,1.11513 0.8528,0.68876 0.6887,-0.81995 -0.8855,-0.68876 z m -207.6767,1.47591 -0.033,0 -0.164,0.16399 0.656,0.81995 0.1967,-0.16399 0.656,-0.52477 -0.656,-0.81995 z m 211.0877,1.31192 0.8528,0.68876 0.6887,-0.78715 -0.8527,-0.72156 z m -214.1379,1.27912 -0.5248,0.45917 0.6888,0.78715 0.5247,-0.45917 0.2952,-0.26238 -0.6559,-0.81995 z m 217.4833,1.5743 0.82,0.72156 0.6887,-0.78715 -0.8199,-0.72156 z m -221.2879,1.83669 0.7216,0.75435 0.7871,-0.75435 -0.7215,-0.75435 z m 224.5677,1.11513 0.7872,0.75435 0.7215,-0.78715 -0.8199,-0.75435 z m -227.7819,1.90228 0.7216,0.75436 0.7871,-0.75436 -0.7215,-0.75435 z m 230.9633,1.11513 0.7872,0.78715 0.7215,-0.75435 -0.7871,-0.78715 z m -234.1119,2.03348 0.7544,0.72155 0.7871,-0.78715 -0.7543,-0.72155 z m 237.1949,1.08233 0.7872,0.78715 0.7543,-0.72155 -0.7871,-0.78716 z m -240.2123,2.09907 0.7543,0.72156 0.7544,-0.78716 -0.7872,-0.72155 z m 243.2297,1.08233 0.6888,0.75436 0.033,0.0328 0.033,0.0328 0.7871,-0.68876 -0.066,-0.0656 -0.6887,-0.75435 z m -246.2143,2.19747 0.7871,0.72155 0.7544,-0.85275 -0.7872,-0.68875 z m 249.1661,1.08233 0.3936,0.45917 0.328,0.36078 0.7871,-0.65596 -0.3279,-0.39358 -0.3936,-0.45917 z m -252.0195,2.29586 0.7871,0.65596 0.7216,-0.81995 -0.82,-0.68876 z m 254.873,1.04953 0.098,0.13119 0.5903,0.72156 0.7872,-0.65596 -0.5576,-0.72155 -0.033,0 0,-0.0328 -0.098,-0.0984 z m -257.6609,2.36146 0.82,0.65596 0.6887,-0.85275 -0.8199,-0.65596 z m 260.3831,1.04953 0.6888,0.88555 0.8199,-0.62316 -0.656,-0.88555 z m -262.9741,2.32866 -0.1312,0.16399 0.8527,0.62316 0.1312,-0.16399 0.5248,-0.72156 -0.82,-0.62316 z m 265.6635,1.18072 0.6232,0.88555 0.8527,-0.62316 -0.6559,-0.88555 z m -268.025,2.03348 -0.3607,0.52477 0.8855,0.59036 0.328,-0.49197 0.033,-0.0328 0.2624,-0.36078 -0.8528,-0.62316 z m 270.5833,1.5415 0.6231,0.88555 0.8528,-0.59037 -0.6232,-0.88554 z m -272.8463,1.7383 -0.5904,0.88554 0.8856,0.59036 0.5903,-0.88554 0,-0.0328 -0.8527,-0.59036 z m 275.3061,1.90228 0.6232,0.91834 0.8527,-0.59036 -0.5903,-0.91835 z m -278.2907,2.68943 0.8855,0.55757 0.5904,-0.91835 -0.8856,-0.55756 z m 280.685,0.98394 0.5575,0.95114 0.9184,-0.55756 -0.5904,-0.95115 z m -282.9809,2.78783 0.8855,0.55756 0.5904,-0.95114 -0.9183,-0.55756 z m 285.2439,0.98394 0.5576,0.95114 0.9183,-0.52477 -0.5575,-0.95114 z m -287.4414,2.85342 0.9184,0.52477 0.5247,-0.98394 -0.9183,-0.49197 z m 289.6389,0.95114 0.5248,0.98394 0.9183,-0.52477 -0.5248,-0.95114 z m -291.7379,2.95182 0.9183,0.49197 0.5248,-0.98394 -0.9512,-0.49197 z m 293.8042,0.91834 0.3607,0.68876 0,0.0328 0.1312,0.26238 0.9512,-0.45917 -0.1312,-0.29518 -0.033,0 -0.3608,-0.72156 z m -295.8049,3.01741 0.9511,0.45918 0.492,-0.98394 -0.9511,-0.45918 z m 297.7727,0.91835 0.164,0.36077 0.2952,0.62317 0.9512,-0.42638 -0.2952,-0.65596 -0.164,-0.36077 z m -299.675,3.08301 0.9511,0.42637 0.492,-0.98394 -0.9511,-0.45917 z m 302.0365,0.68875 -0.492,0.19679 0,0.0328 0.4264,0.98394 0.9839,-0.42638 -0.4591,-1.01673 z m -303.8076,3.3454 0.9512,0.42637 0.4591,-1.01674 -0.9839,-0.42637 z m 305.0539,0.88554 0.4264,1.01674 0.9839,-0.39358 -0.4263,-1.01673 z m -306.6282,2.98462 -0.033,0 -0.066,0.22958 0.984,0.39358 0.066,-0.22959 0.3279,-0.78715 -0.9511,-0.39357 z m 308.2681,1.08233 0.3936,1.04953 0.9839,-0.39357 -0.3935,-1.01674 z m -309.7112,2.72223 -0.2296,0.59036 1.0168,0.32798 0.1967,-0.55756 0.164,-0.45917 -0.9839,-0.36078 z m 311.2527,1.41031 0.3608,1.01674 1.0167,-0.32798 -0.3935,-1.04953 z m -312.6302,2.42705 -0.2952,0.91835 1.0167,0.32798 0.2952,-0.91835 0.033,-0.13119 -0.9839,-0.32798 z m 314.0733,1.7383 0.328,1.01673 1.0168,-0.29518 -0.3608,-1.04953 z m -315.6804,3.37819 0.9839,0.32798 0.328,-1.08234 -1.0167,-0.29518 z m 316.9924,0.78715 0.2951,1.08233 1.0168,-0.32798 -0.2952,-1.04953 z m -318.2387,3.47658 1.0167,0.26239 0.2952,-1.04954 -1.0168,-0.29518 z m 319.4194,0.75436 0.2952,1.08233 1.0167,-0.29518 -0.2952,-1.04954 z m -320.5018,3.50938 1.0168,0.26238 0.2624,-1.08233 -1.0168,-0.22959 z m 321.6169,0.75435 0.2624,1.08233 1.0167,-0.26238 -0.2624,-1.08233 z m -322.6336,3.57498 1.0495,0.22959 0.2296,-1.08234 -1.0167,-0.22958 z m 323.5848,0.72156 0.2623,1.08233 1.0168,-0.22959 -0.2296,-1.08233 z m -324.4376,3.60777 1.0168,0.19679 0.1968,-1.08233 -1.0168,-0.19679 z m 325.3231,0.68876 0.1968,1.04953 0,0.0328 1.0167,-0.19679 0,-0.0328 -0.1968,-1.04954 z m -326.1102,3.67337 1.0495,0.16399 0.164,-1.08233 -1.0167,-0.19679 z m 326.8318,0.65596 0.1311,0.78715 0,0.0328 0.066,0.26238 1.0168,-0.13119 -0.033,-0.29518 0,-0.0328 -0.1312,-0.78715 z m -327.455,3.70617 1.0168,0.13119 0.164,-1.08233 -1.0496,-0.13119 z m 328.0781,0.65596 0.098,0.55757 0.066,0.52476 1.0168,-0.13119 -0.033,-0.52477 0,-0.0328 -0.098,-0.55757 z m -328.6028,3.73897 1.0167,0.0984 0.1312,-1.08233 -1.0495,-0.13119 z m 329.1276,0.62316 0.033,0.32798 0.066,0.75435 1.0495,-0.0984 -0.066,-0.75435 -0.033,-0.36078 z m -329.554,3.77177 1.0495,0.0984 0.098,-1.11513 -1.0495,-0.0656 z m 329.9476,0.59036 0.033,0.13119 0,0.0328 0.033,0.91834 1.0495,-0.0656 -0.033,-0.95114 -0.033,-0.16399 z m -330.2428,3.83736 1.0495,0.0656 0.066,-1.11513 -1.0495,-0.0656 z m 330.5379,0.55757 0.033,1.08233 1.0496,-0.0328 -0.033,-1.11513 z m -330.7347,3.83736 1.0496,0.0328 0.066,-1.08233 -1.0496,-0.0328 z m 330.8987,0.55757 0,1.08233 1.0496,0 0,-1.11513 z m -330.9315,3.87016 1.0496,0 0,-1.08234 -1.0496,-0.0328 z m 330.9643,1.27912 1.0496,0 0,-1.08234 -1.0496,-0.0328 z m -330.9315,3.1486 1.0496,-0.0328 0,-1.08233 -1.0496,0 z m 330.8331,1.24633 1.0496,0.0328 0.033,-1.11513 -1.0496,-0.0328 z m -330.7019,2.06627 0.033,0.98394 0,0.13119 1.0495,-0.0656 0,-0.13119 -0.033,-0.95114 z m 330.5051,2.32865 1.0496,0.0656 0.066,-1.11513 -1.0495,-0.0656 z m -330.2427,2.09907 0.033,0.78715 0.033,0.29519 1.0495,-0.0656 -0.033,-0.29518 0,-0.0328 -0.033,-0.78715 z m 329.9148,2.26306 1.0495,0.0984 0.098,-1.08234 -1.0495,-0.0984 z m -329.554,2.13187 0.066,0.59036 0.033,0.52477 1.0495,-0.13119 -0.066,-0.49197 0,-0.0328 -0.033,-0.55756 z m 329.1276,2.26306 1.0495,0.0984 0.1312,-1.08233 -1.0495,-0.13119 z m -328.6357,2.13187 0.033,0.36078 0.098,0.75435 1.0496,-0.16399 -0.098,-0.72156 -0.033,-0.36077 z m 328.0781,2.19746 1.0496,0.16399 0.164,-1.08233 -1.0496,-0.16399 z m -327.4877,2.16467 0.033,0.13119 0.164,0.98394 1.0167,-0.16399 -0.164,-0.95114 0,-0.0328 0,-0.0984 z m 326.8318,2.19746 1.0495,0.16399 0.164,-1.08233 -1.0167,-0.16399 z m -326.1102,2.19747 0.2296,1.08233 1.0167,-0.19679 -0.1968,-1.08233 z m 325.323,2.13186 1.0496,0.19679 0.1967,-1.08233 -1.0167,-0.19679 z m -324.4703,2.19747 0.2296,1.08233 1.0167,-0.22958 -0.2296,-1.08234 z m 323.5848,2.09907 1.0167,0.22958 0.2296,-1.08233 -1.0167,-0.22958 z m -322.6336,2.23026 0.2623,1.04954 1.0168,-0.22959 -0.2624,-1.08233 z m 321.6168,2.03347 1.0168,0.26239 0.2624,-1.08233 -1.0168,-0.22959 z m -320.5345,2.23027 0.2952,1.08233 1.0167,-0.29518 -0.2952,-1.04954 z m 319.4194,2.03347 1.0167,0.26238 0.2952,-1.04953 -1.0167,-0.29518 z m -318.2387,2.23026 0.328,1.04954 0.9839,-0.29518 -0.2952,-1.04954 z m 316.9924,1.96788 1.0167,0.32798 0.328,-1.08233 -1.0167,-0.29518 z m -315.6805,2.26306 0.328,1.04954 1.0167,-0.32798 -0.3607,-1.04954 z m 314.3358,1.93508 1.0167,0.32798 0.328,-1.04954 -0.984,-0.32797 z m -312.9255,2.26306 0.3608,1.01674 0.984,-0.32798 -0.3608,-1.04954 z m 311.5807,1.5743 -0.098,0.29518 0.984,0.36078 0.098,-0.29518 0.2624,-0.75435 -0.984,-0.32798 z m -310.0719,2.55824 0.3935,1.04954 0.984,-0.39358 -0.3936,-1.01673 z m 308.6288,1.21353 -0.2623,0.62316 0.9839,0.39358 0.2624,-0.62317 0,-0.0328 0.164,-0.36078 -0.984,-0.39358 z m -306.989,2.91902 0.4264,1.01674 0.9512,-0.39358 -0.3936,-1.04954 z m 305.4803,0.78715 -0.4263,0.98394 0.9511,0.42637 0.4264,-0.98394 0.033,0 0,-0.0656 -0.984,-0.39358 z m -303.742,3.247 0.3936,0.85275 0,0.0328 0.066,0.16399 0.9512,-0.45917 -0.066,-0.13119 0,-0.0328 -0.3608,-0.81995 z m 301.5118,1.73829 0.9511,0.45917 0.492,-1.01673 -0.9512,-0.42638 z m -299.6423,2.29586 0.2296,0.49197 0.2296,0.49197 0.9511,-0.45917 -0.2623,-0.49197 0.033,0 -0.2296,-0.49197 z m 297.74,1.67269 0.9511,0.45918 0.492,-0.98394 -0.9511,-0.45917 z m -295.8049,2.29586 0.066,0.13119 0.4592,0.85275 0.9183,-0.49197 -0.4264,-0.85274 -0.066,-0.0984 z m 293.8042,1.6071 0.9512,0.49197 0.4919,-0.98394 -0.9183,-0.49197 z m -291.7379,2.29586 0.5575,0.98394 0.9184,-0.52477 -0.5576,-0.95114 z m 289.6388,1.5743 0.9184,0.49197 0.5248,-0.95114 -0.8856,-0.52477 z m -287.4414,2.29586 0.5576,0.95114 0.8856,-0.55756 -0.5576,-0.95114 z m 285.244,1.50871 0.8855,0.52477 0.5576,-0.95115 -0.8856,-0.52476 z m -282.9809,2.26306 0.5904,0.95114 0.8855,-0.55757 -0.5904,-0.95114 z m 280.6522,1.47591 0.9184,0.55756 0.5575,-0.95114 -0.8855,-0.55756 z m -278.2907,2.26306 0.6231,0.91834 0.8528,-0.59036 -0.5904,-0.91835 z m 275.8965,1.41031 0.8855,0.55756 0.5904,-0.91834 -0.8528,-0.55756 z m -273.4367,2.26306 0.656,0.88554 0.8527,-0.59036 -0.6232,-0.88554 z m 271.108,1.08233 -0.164,0.26239 0.8528,0.59036 0.164,-0.22959 0.4591,-0.65596 -0.8527,-0.62316 z m -268.517,2.52545 0.6232,0.88554 0.8528,-0.62316 -0.656,-0.88555 z m 266.1884,0.68875 -0.4592,0.59037 0.8527,0.62316 0.4592,-0.59037 0.1968,-0.29518 -0.8528,-0.62316 z m -263.5317,2.82063 0.6559,0.88554 0.82,-0.65596 -0.656,-0.85274 z m 260.3831,1.21352 0.8199,0.65596 0.6888,-0.85275 -0.82,-0.65595 z m -257.6609,2.26306 0.492,0.59037 0.2296,0.26238 0.7871,-0.68876 -0.1968,-0.22958 -0.4919,-0.59037 z m 254.873,1.14793 0.82,0.68876 0.6887,-0.85275 -0.7871,-0.68876 z m -252.0196,2.23026 0.2296,0.26239 0.492,0.59036 0.7871,-0.72155 -0.4919,-0.55757 -0.1968,-0.26238 z m 249.1662,1.08234 0.7872,0.72155 0.7215,-0.81995 -0.7871,-0.72155 z m -246.2144,2.23026 0.7544,0.81995 0.7544,-0.72156 -0.7544,-0.81995 z m 243.2298,1.01674 0.7871,0.72155 0.7544,-0.78715 -0.7872,-0.72156 z m -240.2123,2.23026 0.7543,0.78715 0.7544,-0.75435 -0.7544,-0.78716 z m 237.1621,0.95114 0.7543,0.72155 0.7872,-0.78715 -0.7544,-0.72155 z m -234.0791,2.19746 0.7871,0.75436 0.7544,-0.75436 -0.7872,-0.75435 z m 230.9633,0.88555 0.7543,0.75435 0.7872,-0.75435 -0.7544,-0.75436 z m -227.7491,2.16466 0.7871,0.75436 0.7216,-0.78715 -0.82,-0.72156 z m 224.5349,0.85275 0.7215,0.75435 0.82,-0.75435 -0.7216,-0.75435 z m -221.2879,2.13187 0.8199,0.72155 0.7216,-0.78715 -0.8528,-0.72155 z m 218.2049,0.62316 -0.1968,0.16399 0.6887,0.78715 0.1968,-0.16399 0.656,-0.55756 -0.7216,-0.78716 z m -214.8595,2.26306 0.8527,0.72155 0.656,-0.81994 -0.82,-0.68876 z m 211.842,0.29518 -0.5247,0.42637 0.6559,0.81995 0.5248,-0.42637 0,-0.0328 0.328,-0.26238 -0.6888,-0.78715 z m -208.431,2.52544 0.8527,0.68876 0.656,-0.81995 -0.8528,-0.68875 z m 204.4625,0.62317 0.6232,0.85274 0.8855,-0.68875 -0.6232,-0.81995 z m -200.9532,2.06627 0.656,0.52477 0.2296,0.16399 0.6231,-0.85275 -0.2295,-0.16399 -0.656,-0.49197 z m 197.4438,0.59036 0.6232,0.85275 0.8855,-0.65596 -0.6231,-0.85275 z m -193.9016,2.03348 0.328,0.22958 0.5904,0.42638 0.5903,-0.88555 -0.5575,-0.39358 -0.033,0 -0.2952,-0.22958 z m 190.3266,0.52476 0.5904,0.85275 0.9183,-0.62316 -0.6231,-0.88555 z m -186.686,2.00068 0.9183,0.62316 0.5904,-0.88554 -0.9183,-0.59037 z m 183.0455,0.42637 0.5575,0.88555 0.9184,-0.59037 -0.5576,-0.88554 z m -179.3393,2.00068 0.9183,0.59036 0.5576,-0.88554 -0.9184,-0.59037 z m 175.6331,0.36078 0.5248,0.91834 0.9511,-0.59036 -0.5576,-0.88555 z m -171.8614,1.96787 0.9184,0.55757 0.5575,-0.88554 -0.9511,-0.59037 z m 168.0896,0.29519 0.5248,0.91834 0.9511,-0.55757 -0.5247,-0.91834 z m -164.285,1.93508 0.9511,0.52476 0.5248,-0.91834 -0.9511,-0.52477 z m 160.4477,0.22958 0.5247,0.91835 0.9512,-0.52477 -0.5248,-0.91834 z m -156.5775,1.86949 0.9839,0.52476 0.492,-0.91834 -0.984,-0.52477 z m 152.7401,0.16399 -0.033,0.0328 0.4592,0.91835 0.066,0 0,-0.0328 0.9183,-0.45917 -0.492,-0.95114 z m -148.8044,1.86948 0.9839,0.49197 0.492,-0.95114 -1.0167,-0.49197 z m 145.2294,-0.0984 -0.3936,0.19678 0.4264,0.95115 0.4264,-0.19679 0.5903,-0.29518 -0.4591,-0.91835 z m -141.228,2.00067 0.9839,0.49197 0.4592,-0.95114 -1.0168,-0.49197 z m 137.6202,-0.29518 -0.033,0 -0.7543,0.32798 0.4264,0.98394 0.7543,-0.36078 0.033,0 0.2296,-0.0984 -0.4592,-0.95114 z m -133.5861,2.09907 1.0167,0.45917 0.3936,-0.95114 -0.9839,-0.45917 z m 128.7648,-0.0328 0.3936,0.98394 1.0167,-0.42637 -0.3935,-0.98394 z m -124.6978,1.7383 0.7215,0.29518 0.328,0.13119 0.3608,-0.98394 -0.2952,-0.13119 -0.7216,-0.26239 z m 120.5981,-0.0984 0.3936,0.98394 1.0167,-0.39357 -0.3608,-0.98394 z m -116.4656,1.7055 0.3936,0.13119 0.6559,0.22958 0.3608,-0.98394 -0.6559,-0.22958 -0.3936,-0.13119 z m 112.3658,-0.19679 0.328,0.98394 1.0496,-0.36078 -0.3608,-0.98394 z m -108.2005,1.67269 0.066,0 0.984,0.32798 0.328,-0.98393 -0.984,-0.32798 -0.033,-0.0328 z m 104.0352,-0.26238 0.328,0.98394 1.0167,-0.32798 -0.2952,-1.01674 z m -99.8042,1.6071 1.0495,0.32798 0.2952,-1.01674 -1.0495,-0.29518 z m 95.6061,-0.32798 0.2951,1.01674 1.0496,-0.32798 -0.2952,-0.98394 z m -91.3752,1.5743 1.0496,0.29519 0.2951,-1.01674 -1.0823,-0.29518 z m 87.1442,-0.39357 0.2624,1.01674 1.0495,-0.29519 -0.2623,-1.01673 z m -82.8804,1.5415 1.0823,0.26239 0.2624,-1.01674 -1.0824,-0.26238 z m 78.6167,-0.45917 0.2296,1.01674 1.0823,-0.26239 -0.2624,-1.01673 z m -74.3202,1.47591 1.0823,0.22959 0.2296,-1.01674 -1.0823,-0.22959 z m 70.0237,-0.52477 0.2295,1.01674 1.0496,-0.22959 -0.1968,-1.01673 z m -65.6944,1.41032 1.0824,0.22958 0.1967,-1.04953 -1.0823,-0.19679 z m 61.365,-0.59037 0.1968,1.04954 1.0823,-0.19679 -0.1967,-1.04954 z m -57.0028,1.37752 1.0823,0.19678 0.164,-1.04953 -1.0824,-0.16399 z m 52.7391,-0.65596 -0.033,0 -0.033,0 0.164,1.04953 0.033,0 1.0495,-0.16399 -0.164,-1.04953 z m -48.377,1.34471 1.1151,0.1312 0.1312,-1.01674 -1.0823,-0.16399 z m 44.2444,-0.75435 -0.2623,0.0328 0.098,1.04953 0.2951,-0.0328 0.82,-0.1312 -0.1312,-1.04953 z m -39.8495,1.31192 1.0823,0.0984 0.1312,-1.01673 -1.0823,-0.1312 z m 35.717,-0.85275 -0.033,0 -0.4592,0.0656 0.066,1.04953 0.5248,-0.0656 0.5903,-0.0656 -0.098,-1.04953 z m -31.3221,1.27912 1.1152,0.0984 0.066,-1.04954 -1.0824,-0.0984 z m 27.1568,-0.88554 -0.033,0 -0.6888,0.0328 0.066,1.04953 0.7216,-0.0328 0.3935,-0.0656 -0.098,-1.01674 z m -22.729,1.21352 1.0823,0.0656 0.066,-1.04954 -1.0823,-0.0656 z m 18.498,-0.95114 -0.8855,0.0328 0.066,1.04953 0.8855,-0.0328 0.1968,-0.0328 -0.066,-1.04954 z m -14.1031,1.14793 1.1151,0.0328 0.033,-1.04954 -1.1151,-0.0328 z m 8.8554,0.0656 1.0496,0 0.066,0 -0.033,-1.04954 -0.066,0 -1.0496,0 z m -4.4277,0.0328 1.1151,0 0,-1.04953 -1.1151,0 z" />
      <path
         style="color:#000000;font-style:normal;font-variant:normal;font-weight:normal;font-stretch:normal;font-size:medium;line-height:normal;font-family:Sans;-inkscape-font-specification:Sans;text-indent:0;text-align:start;text-decoration:none;text-decoration-line:none;letter-spacing:normal;word-spacing:normal;text-transform:none;direction:ltr;block-progression:tb;writing-mode:lr-tb;baseline-shift:baseline;text-anchor:start;display:inline;overflow:visible;visibility:visible;fill:#ffffff;fill-opacity:1;stroke:none;stroke-width:1;marker:none;enable-background:accumulate"
         id="path4024"
         d="m -1691.2251,229.41183 c -95.5893,0 -173.0945,77.50515 -173.0945,173.09451 0,95.58935 77.5052,173.0945 173.0945,173.0945 95.5894,0 173.0945,-77.50515 173.0945,-173.0945 0,-95.58936 -77.5051,-173.09451 -173.0945,-173.09451 z m 0,1.09424 c 94.998,0 172.0003,77.00228 172.0003,172.00027 0,94.99798 -77.0023,172.00026 -172.0003,172.00026 -94.998,0 -172.0002,-77.00228 -172.0002,-172.00026 0,-94.99799 77.0022,-172.00027 172.0002,-172.00027 z" />
      <path
         style="fill:#000000;stroke:none"
         id="rect4071"
         d="m -1918.918,397.52617 436.2614,-80.83702 15.3897,83.05497 -436.2614,80.83702 z" />
      <path
         style="fill:#ffffff;stroke:none"
         id="path3966"
         d="m -1730.329,335.8981 c -2.44,5.05323 -4.5107,9.44375 -6.4705,13.46391 -1.9599,4.02017 -3.7989,7.67597 -5.7512,11.25841 -1.9892,3.63802 -4.0824,7.22095 -6.6101,10.92061 -2.5276,3.69967 -5.4764,7.53541 -9.4312,11.39857 -2.7392,2.69435 -5.9854,5.40132 -9.9066,8.02117 -3.9212,2.61985 -8.5235,5.15441 -13.9248,7.39231 -2.2099,0.88807 -4.5325,1.74772 -6.9513,2.33412 -2.4803,0.60134 -4.8417,0.71238 -7.0109,0.28183 -2.259,-0.42823 -4.3022,-1.3579 -5.8071,-2.70391 -1.4617,-1.31061 -2.5406,-2.98618 -2.8571,-4.65991 -0.4824,-1.89932 -0.026,-4.21182 0.9357,-6.4669 0.437,-1.01412 1.0593,-2.03027 1.8505,-3.07531 0.8344,-1.10227 1.7732,-2.12105 2.7239,-3.0827 1.4174,-1.41562 2.8754,-2.60673 4.3553,-3.66311 1.4798,-1.05638 2.9833,-1.9765 4.5298,-2.79716 3.0932,-1.64134 6.3631,-2.91415 10.1049,-3.6875 3.7494,-0.76994 8.0034,-1.01532 13.0663,-0.33199 3.771,0.50898 7.1308,1.27349 10.1052,2.06973 0,0 0,0 0,0 4.3942,1.18074 7.9497,2.45389 10.8758,3.6199 2.9261,1.16602 5.2231,2.23064 7.074,3.13777 1.851,0.90713 3.2555,1.66014 4.3723,2.27911 1.1168,0.61898 1.9453,1.10582 2.6283,1.51798 1.3659,0.82432 2.154,1.34372 3.415,2.19171 1.261,0.84799 3.0101,2.00593 6.1274,4.35654 2.536,1.91223 5.968,4.69914 9.8409,8.4242 3.873,3.72505 8.1824,8.39724 12.4111,13.97306 2.4,3.18622 4.7819,6.58833 6.4221,10.38103 1.5023,3.50134 2.4677,7.37163 2.0725,11.11464 -0.3252,3.39874 -1.7387,6.80884 -4.0401,9.41706 -2.2247,2.53363 -5.3488,4.39664 -8.6606,5.07169 -3.255,0.67386 -6.8137,0.23427 -9.7497,-1.2446 0,0 0,0 0,0 -2.931,-1.46254 -5.3847,-4.01068 -6.6772,-6.93855 0,0 0,0 0,0 -1.4331,-3.08184 -1.5863,-6.82873 -1.007,-10.40572 0.6132,-3.70201 2.1896,-7.30987 4.0355,-10.79782 3.3253,-6.20045 7.5537,-11.59374 12.0505,-16.07318 2.1264,-2.11828 4.3553,-4.11288 6.6767,-5.97297 0,0 0,0 0,0 4.9899,-4.01323 10.4292,-7.39655 16.184,-10.21789 5.7548,-2.82134 11.8242,-5.07598 18.0284,-6.76241 0,0 0,-10e-6 0,-10e-6 5.0056,-1.32446 10.064,-2.32564 14.8949,-1.56681 2.4131,0.36932 4.7581,1.14252 6.7599,2.40605 1.1227,0.70904 2.1499,1.56807 3.0105,2.54518 0.7483,0.84953 1.2668,1.69506 1.6197,2.49246 0,0 0,0 0,0 0.5416,1.18809 0.7407,2.28625 0.8021,3.28096 0.061,0.99471 -0.02,1.89522 -0.1651,2.78126 -0.1391,0.85078 -0.3492,1.69783 -0.6296,2.64107 -0.2805,0.94323 -0.6327,1.98402 -1.1072,3.21945 -0.2023,0.53918 -0.4339,1.11304 -0.7047,1.73167 -1.3618,3.11014 -3.4972,6.32544 -5.7771,9.84665 -5.2535,7.95101 -10.7958,16.39621 -15.5466,24.10455 -2.6015,4.22102 -6.7387,10.60301 -10.833,17.85987 -3.1737,5.63231 -6.2664,11.77432 -8.8017,17.59068 -2.5352,5.81635 -4.5189,11.2984 -5.7418,15.50114 -1.0056,3.45564 -1.5913,6.17031 -1.8637,8.07743 -0.2724,1.90711 -0.2323,3.00737 0.066,3.26323 0.2985,0.25586 0.855,-0.33235 1.6774,-1.78094 0.8224,-1.44859 1.9105,-3.75777 3.3411,-6.92352 2.6642,-5.89536 5.2582,-11.53141 7.9081,-17.00222 2.6499,-5.47082 5.3565,-10.77599 8.2673,-15.95171 3.325,-5.91762 6.9248,-11.67102 10.8756,-17.37603 5.4149,-7.8192 11.4311,-15.41495 16.8346,-23.27495 2.3906,-3.42783 4.7416,-7.16106 6.2424,-11.34369 0.2888,-0.80505 0.5209,-1.57148 0.7066,-2.30124 0.4201,-1.68169 0.5697,-3.16001 0.5764,-4.48361 0.01,-1.3236 -0.1287,-2.49674 -0.3517,-3.62283 -0.2351,-1.19272 -0.5775,-2.33063 -1.0504,-3.53044 -0.4729,-1.19982 -1.0704,-2.46815 -1.9749,-3.8524 0,0 0,0 0,0 -0.613,-0.92844 -1.3627,-1.89139 -2.3236,-2.86684 -1.1085,-1.12528 -2.3614,-2.08696 -3.6998,-2.87428 0,0 0,0 0,0 -2.3925,-1.40779 -5.0295,-2.28613 -7.7083,-2.74535 -5.3973,-0.91508 -10.8625,-0.24058 -16.0928,0.74424 -6.1161,1.12339 -12.2372,2.66201 -18.2354,4.87573 -5.9981,2.21372 -11.8785,5.10547 -17.3748,8.94765 -0.6027,0.42135 -1.2046,0.85499 -1.805,1.30129 -3.9655,2.95608 -7.8294,6.46652 -11.3616,10.5067 -3.5322,4.04018 -6.7311,8.60957 -9.367,13.62117 -2.0667,3.89358 -3.8149,8.21325 -4.5727,12.91155 -0.7592,4.6445 -0.33,9.65433 1.7618,14.15365 0,10e-6 0,10e-6 0,10e-6 2.0483,4.29454 5.5854,7.75421 9.8366,9.73188 0,1e-5 0,1e-5 0,1e-5 4.2936,1.98724 9.1549,2.4199 13.6302,1.34651 4.5728,-1.10465 8.6107,-3.72247 11.47,-7.21288 2.9624,-3.62615 4.6017,-8.07818 4.8625,-12.48654 0.2613,-4.87125 -1.0262,-9.4422 -2.9262,-13.34546 -2.0678,-4.26614 -4.7459,-7.82479 -7.3327,-10.98413 -4.0728,-4.9964 -8.1129,-9.16331 -11.6989,-12.5177 -3.5861,-3.35439 -6.7159,-5.90313 -9.0305,-7.72306 -6.1223,-4.814 -11.2232,-7.89956 -15.3412,-10.14505 -4.118,-2.2455 -7.2768,-3.6429 -9.8748,-4.70798 -2.5981,-1.06507 -4.6439,-1.78842 -6.6632,-2.46019 -2.0193,-0.67178 -4.013,-1.29228 -6.5656,-2.00044 -1.3158,-0.36565 -2.7835,-0.75321 -4.4896,-1.14924 -1.7061,-0.39602 -3.651,-0.80289 -5.9243,-1.1571 -5.6633,-0.88241 -10.1587,-1.01045 -13.8593,-0.89123 0,0 0,0 0,0 -3.0601,0.0974 -5.5772,0.38572 -7.7655,0.72886 -2.1883,0.34314 -4.0533,0.74619 -5.8212,1.24731 -1.768,0.50113 -3.442,1.10108 -5.2054,1.96806 -1.7634,0.86698 -3.6247,1.99697 -5.6429,3.71259 0,0 0,0 0,0 -1.2986,1.09567 -2.667,2.4749 -3.969,4.30214 -1.313,1.84256 -2.1421,3.61737 -2.6579,5.21314 0,0 0,0 0,0 -0.4831,1.48083 -0.6501,2.80548 -0.6609,3.96209 -0.011,1.15661 0.1355,2.15034 0.3568,3.03713 0.2212,0.88679 0.5184,1.66893 0.8688,2.41641 0.3504,0.74747 0.7538,1.46156 1.2397,2.20089 0.6011,0.8902 1.3087,1.79639 2.2501,2.76483 0.9414,0.96844 2.1208,2.01167 3.7409,2.99025 0.7335,0.44298 1.5542,0.87072 2.4823,1.26018 1.6272,0.68275 3.3327,1.10003 5.0268,1.29974 2.7638,0.32099 5.4551,0.10225 8.0473,-0.38244 2.5922,-0.48469 5.0851,-1.23678 7.4462,-2.0506 5.0761,-1.72718 9.8297,-3.75898 14.2711,-6.09788 4.4413,-2.33891 8.5725,-4.98564 12.3944,-7.98804 3.9516,-3.11966 7.521,-6.57252 10.7984,-10.29323 3.2774,-3.72072 6.2606,-7.71207 8.9926,-11.93114 4.9706,-7.65333 9.1926,-16.03474 13.2731,-25.2033 0.1398,-0.31423 0.28,-0.62982 0.4204,-0.94665 2.4933,-5.54815 5.0658,-11.49977 7.9309,-17.11943 2.8652,-5.61966 6.0627,-10.88105 9.6086,-15.30425 2.3758,-2.9947 4.8895,-5.62672 7.2932,-7.86745 2.4036,-2.24072 4.6952,-4.09233 6.6256,-5.59411 1.9303,-1.50178 3.4985,-2.65886 4.4746,-3.52354 0.9761,-0.86468 1.3589,-1.4444 0.9515,-1.70901 -0.3524,-0.22895 -1.3308,-0.16857 -2.812,0.20883 -1.4813,0.37741 -3.4645,1.07647 -5.7744,2.16388 -2.3098,1.08742 -4.945,2.5667 -7.6934,4.48188 -2.7484,1.91518 -5.6078,4.26806 -8.3558,7.04014 -2.2553,2.29742 -4.4133,4.83698 -6.4339,7.5346 -2.0206,2.69762 -3.9049,5.55216 -5.6506,8.45709 -3.4916,5.80984 -6.432,11.80443 -8.9797,17.14092 -0.1513,0.31275 -0.3015,0.62352 -0.4506,0.93222 z" />
      <path
         style="fill:#ffffff;stroke:none"
         id="path3968"
         d="m -1734.6174,358.90195 c 0,0 1.5962,0.37807 4.4196,0.80171 2.8235,0.42363 6.8873,0.86564 11.7662,0.83421 4.8788,-0.0314 10.5724,-0.55389 16.4954,-1.88209 5.9231,-1.32821 12.0619,-3.46964 17.7846,-6.37372 3.002,-1.50208 5.9387,-3.26782 8.6176,-5.31044 2.6789,-2.04262 5.0972,-4.36326 7.1244,-6.90352 2.7268,-3.40099 4.5392,-7.24805 5.4392,-10.87543 0.747,-3.0106 0.9282,-6.09115 0.5265,-9.10108 0,0 0,0 0,0 -0.8376,-5.40654 -3.4326,-9.98326 -6.7634,-13.59077 -3.3058,-3.58971 -7.2135,-6.32419 -11.3715,-8.66824 -1.2831,-0.72193 -2.5916,-1.41342 -3.9297,-2.07847 -6.6809,-3.32046 -13.8732,-5.6123 -21.3112,-7.01859 -7.438,-1.40628 -15.1173,-1.93069 -22.7047,-1.79822 -4.266,0.0745 -8.5012,0.32369 -12.6733,0.72539 -8.6749,0.80082 -17.3804,2.25006 -25.754,4.84591 -8.3735,2.59586 -16.426,6.34668 -23.6263,11.72207 -3.6336,2.71334 -7.0878,5.96718 -9.8291,9.9583 0,0 0,0 0,0 -1.3508,1.95852 -2.4834,4.11235 -3.3117,6.40354 -0.8939,2.47293 -1.3556,4.98048 -1.4173,7.44045 0,0 0,0 0,0 -0.063,3.53791 0.7644,6.81584 2.1644,9.71143 1.4,2.8956 3.3742,5.42619 5.8673,7.4809 0,0.004 0.01,0.008 0.015,0.012 1.3363,1.08024 2.7455,1.90574 4.1892,2.54725 1.4438,0.64151 2.9236,1.09943 4.4391,1.41999 1.5154,0.32056 3.0675,0.50434 4.6751,0.56608 1.6076,0.0617 3.2718,0.003 5.0153,-0.20747 0.297,-0.0357 0.5964,-0.0756 0.8983,-0.12011 1.7964,-0.26468 3.3951,-0.60614 4.898,-1.00405 1.5028,-0.39792 2.9097,-0.85529 4.2799,-1.42556 1.3701,-0.57028 2.7047,-1.25481 4.0127,-2.15046 1.3079,-0.89564 2.5925,-2.00415 3.7803,-3.44469 0,0 0,0 0,0 0.2203,-0.26809 0.4365,-0.54723 0.6478,-0.838 1.1107,-1.52785 1.999,-3.19053 2.6475,-4.86057 0.6486,-1.67004 1.0582,-3.34562 1.2678,-4.90799 0.4193,-3.12476 0.031,-5.75672 -0.4841,-7.33266 -0.2653,-0.81104 -0.5814,-1.19728 -0.8422,-1.177 -0.2609,0.0203 -0.4664,0.44363 -0.6399,1.25838 -0.3485,1.63629 -0.8218,4.11541 -1.831,6.80375 -1.0091,2.68833 -2.5603,5.56223 -4.5656,8.00433 0,0 0,0 0,0 -0.1038,0.12724 -0.2088,0.2535 -0.3149,0.37874 -1.0282,1.21306 -2.019,2.25207 -3.0076,3.20243 -0.9886,0.95035 -1.9775,1.81039 -3.0397,2.59399 -1.0622,0.7836 -2.1997,1.49113 -3.4923,2.07383 -1.2927,0.58269 -2.744,1.04239 -4.4025,1.25036 0,0 0,0 0,0 -0.1993,0.0247 -0.4018,0.0456 -0.6073,0.0624 -1.5953,0.1306 -3.1036,0.0192 -4.4993,-0.253 -1.3958,-0.27222 -2.6813,-0.7051 -3.8664,-1.2499 -1.1851,-0.5448 -2.2712,-1.20141 -3.2755,-1.95519 -1.0042,-0.75377 -1.9279,-1.60415 -2.775,-2.5752 -0.2846,-0.31663 -0.5616,-0.64708 -0.8317,-0.99218 -2.6832,-3.42839 -3.9114,-8.0638 -3.3911,-12.38429 0.2327,-2.16393 0.919,-4.32947 1.9281,-6.45667 0.5909,-1.24572 1.2936,-2.4569 2.0748,-3.61646 2.1296,-3.1428 4.9931,-5.89885 8.1219,-8.47712 6.256,-5.15615 13.3868,-9.1257 21.0663,-12.16529 7.6795,-3.03959 15.9072,-5.13859 24.2677,-6.43289 4.5322,-0.67999 9.1628,-1.12685 13.8293,-1.25485 7.3411,-0.20137 14.7481,0.30086 21.8871,1.77685 7.139,1.476 14.009,3.929 20.2386,7.5579 0.784,0.45673 1.5546,0.93264 2.3116,1.42741 3.7205,2.42857 7.071,5.25871 9.5706,8.62316 2.5,3.37448 4.2239,7.28432 4.5099,11.24866 0.2455,2.69983 -0.1867,5.44771 -1.1129,8.12603 -0.8661,2.50467 -2.2466,4.9939 -3.9969,7.22998 -3.3965,4.32123 -8.3437,7.72692 -13.6571,10.52496 -4.1017,2.13435 -8.4034,3.86483 -12.708,5.19531 -4.3047,1.33049 -8.6099,2.26177 -12.7336,2.87488 -4.1237,0.6131 -8.065,0.90923 -11.6826,1.03137 -3.6176,0.12213 -6.9124,0.0719 -9.7841,0.033 -1.2639,-0.0171 -1.9373,0.14442 -2.2364,0.42607 -0.2991,0.28165 -0.2213,0.67884 0.024,1.08304 0.4915,0.80838 1.6686,1.62613 1.6686,1.62613 z" />
      <path
         style="fill:#ffffff;stroke:none"
         id="path3970"
         d="m -1601.0902,447.10368 c 0,0 -1.549,0.90151 -3.6196,1.87284 -2.0707,0.97133 -4.6761,1.98519 -6.5929,2.43826 -9.0333,2.13514 -18.3116,2.83866 -27.5126,2.06572 -8.0124,-0.68122 -15.7339,-2.42857 -23.4525,-3.40606 -7.5185,-0.91615 -15.2268,-1.21669 -22.3455,1.07074 -1.15,0.36119 -2.2854,0.78933 -3.3993,1.28178 -1.0833,0.47893 -2.4094,1.05362 -3.7652,1.72715 -1.3559,0.67353 -2.7395,1.44706 -3.9603,2.21994 -2.4415,1.54575 -4.2204,3.07907 -4.2204,3.07907 l -1.1081,-0.98116 c 0,0 1.3083,-2.07492 3.4844,-4.33509 1.088,-1.13008 2.3911,-2.29863 3.7483,-3.30805 1.3571,-1.00941 2.7647,-1.85833 3.9773,-2.44053 1.248,-0.59921 2.5278,-1.12563 3.8327,-1.57593 7.99,-2.71009 16.3874,-2.64707 24.3805,-1.62511 7.8356,0.96619 15.4446,2.77036 23.266,3.55354 0,0 0,0 0,0 8.3216,0.84247 17.1067,0.53636 26.1874,-1.29812 1.8737,-0.37853 4.5291,-0.68945 6.7264,-0.99109 2.1974,-0.30164 3.9344,-0.56624 3.9344,-0.56624 z" />
      <path
         style="fill:#ffffff;stroke:none"
         id="path3972"
         d="m -1610.1856,522.55293 c -0.134,0.49482 -0.4487,1.27946 -1.0546,2.25759 -0.6059,0.97814 -1.5071,2.15289 -2.8478,3.31407 -1.3496,1.15724 -3.1177,2.26508 -5.2986,3.00766 -2.1809,0.74258 -4.7798,1.11889 -7.593,0.73954 -2.2002,-0.33312 -4.4172,-1.08667 -6.5018,-2.27436 -2.0846,-1.18768 -4.0366,-2.81013 -5.6663,-4.79551 -2.7725,-3.36361 -4.7299,-7.52574 -5.8807,-11.92566 -1.2227,-4.61727 -1.7678,-9.57929 -1.6089,-14.66425 0.1589,-5.08496 1.02,-10.2902 2.4715,-15.34172 2.6998,-9.44064 7.2597,-18.38531 12.1977,-26.66688 5.1638,-8.68753 10.7878,-16.85816 16.3852,-24.11527 5.5974,-7.25711 11.1613,-13.60259 16.0894,-18.80139 4.928,-5.19881 9.213,-9.2591 12.2438,-12.03271 3.0307,-2.7736 4.7989,-4.27427 4.7989,-4.27427 2.8506,-1.93285 3.9469,-2.21396 4.0155,-1.62024 0.069,0.59372 -0.8751,2.07938 -2.0321,3.79736 0,0 -1.67,1.57536 -4.5231,4.46125 -2.853,2.88589 -6.8793,7.09495 -11.484,12.43172 -4.6048,5.33677 -9.78,11.80842 -14.9537,19.13799 -5.1737,7.32957 -10.3392,15.51808 -15.0567,24.1466 -2.246,4.12799 -4.39,8.32931 -6.2358,12.57551 -1.8458,4.24619 -3.3906,8.53754 -4.474,12.84185 -1.1483,4.6014 -1.8088,9.23573 -1.88,13.65124 -0.071,4.41551 0.4486,8.60971 1.541,12.41045 1.0573,3.61068 2.4663,6.74319 4.3764,8.96795 1.1065,1.27726 2.348,2.34837 3.5968,3.12083 1.2488,0.77245 2.5052,1.24678 3.6919,1.41355 1.5077,0.27362 3.0122,0.11596 4.2864,-0.22744 1.2742,-0.3434 2.3245,-0.87374 3.1334,-1.41395 0.6914,-0.45045 1.2401,-0.92694 1.6779,-1.32571 0.4378,-0.39876 0.7666,-0.72176 1.016,-0.91057 0.8557,-0.64798 1.5453,-1.36331 2.0954,-2.10351 0.5502,-0.7402 0.9638,-1.50906 1.2468,-2.32791 0.44,-1.2596 0.589,-2.66181 0.2732,-4.29649 -0.1579,-0.81734 -0.4375,-1.69291 -0.896,-2.60546 -0.4585,-0.91256 -1.0963,-1.86556 -1.9912,-2.7699 0,0 0,0 0,0 -0.8637,-0.87558 -1.9748,-1.70693 -3.3558,-2.35725 -1.3811,-0.65032 -3.04,-1.12267 -4.8804,-1.17219 -0.6455,-0.0174 -0.9727,-0.0901 -1.1129,-0.23636 -0.1401,-0.1462 -0.088,-0.35829 0.059,-0.57448 0.2934,-0.43238 0.9928,-0.84761 0.9928,-0.84761 0,0 0.287,0.0216 0.802,0.0984 0.5149,0.0768 1.2589,0.21301 2.154,0.48318 0.895,0.27017 1.9415,0.67699 3.0307,1.28345 1.0893,0.60645 2.2201,1.41341 3.2603,2.44558 1.318,1.31064 2.4666,2.97435 3.279,4.83516 0.8123,1.86082 1.284,3.90896 1.38,5.93945 0.1007,2.25785 -0.2565,4.43253 -0.7678,6.32068 z" />
      <path
         style="fill:#ff2a2a;stroke:#000000;stroke-width:0.20213793px;stroke-linecap:butt;stroke-linejoin:miter;stroke-opacity:1"
         id="path4062"
         d="m -1603.7177,353.24925 c 6.3499,-5.57286 15.0133,-7.97955 21.2952,-13.62899 2.1549,-1.93794 3.9976,-4.24468 5.2656,-6.85069 1.268,-2.60601 1.9494,-5.51669 1.8075,-8.41133 -0.1526,-3.11339 -1.2719,-6.17623 -3.1826,-8.63911 -1.9107,-2.46288 -4.6067,-4.31162 -7.5997,-5.18248 -3.8061,-1.10744 -8.0568,-0.58855 -11.4848,1.40196 -3.4279,1.99051 -5.9856,5.42507 -6.9104,9.27963 0.1018,-3.90493 -1.4409,-7.82665 -4.1758,-10.61571 -2.735,-2.78906 -6.6257,-4.40822 -10.5319,-4.38292 -3.1583,0.0205 -6.2947,1.09534 -8.8266,2.98339 -2.5319,1.88805 -4.4512,4.57504 -5.4557,7.56946 -0.9148,2.72704 -1.0768,5.68535 -0.5992,8.5218 0.4776,2.83644 1.5841,5.55162 3.1097,7.99005 4.4251,7.0727 12.1129,11.59185 16.6701,18.58016 2.0172,3.09331 3.368,6.61882 3.9343,10.26808 1.5884,-3.37701 3.8794,-6.42163 6.6843,-8.8833" />
      <text
         style="font-style:normal;font-weight:normal;font-size:20.53496361px;line-height:125%;font-family:Sans;letter-spacing:0px;word-spacing:0px;fill:#000000;fill-opacity:1;stroke:none"
         xml:space="preserve"
         id="text4073"
         transform="matrix(0.98649983,-0.16376231,0.16376231,0.98649983,0,0)"
         y="126.35403"
         x="-1937.5223"><tspan
           style="font-style:normal;font-variant:normal;font-weight:normal;font-stretch:normal;font-family:Lora;-inkscape-font-specification:Lora;fill:#ffffff"
           id="tspan4075"
           y="126.35403"
           x="-1937.5223">ABRIL</tspan></text>
      <text
         style="font-style:normal;font-weight:normal;font-size:20.53496361px;line-height:125%;font-family:Sans;letter-spacing:0px;word-spacing:0px;fill:#000000;fill-opacity:1;stroke:none"
         xml:space="preserve"
         id="text4077"
         transform="matrix(0.98516107,-0.17163235,0.17163235,0.98516107,0,0)"
         y="107.35808"
         x="-1577.0024"><tspan
           style="font-style:normal;font-variant:normal;font-weight:normal;font-stretch:normal;font-family:Lora;-inkscape-font-specification:Lora;fill:#ffffff"
           id="tspan4079"
           y="107.35808"
           x="-1577.0024">2016</tspan></text>
    </g>
  </g>
</svg>
