<?xml version="1.0" encoding="UTF-8" standalone="no"?>
<svg
   xmlns:dc="http://purl.org/dc/elements/1.1/"
   xmlns:cc="http://creativecommons.org/ns#"
   xmlns:rdf="http://www.w3.org/1999/02/22-rdf-syntax-ns#"
   xmlns:svg="http://www.w3.org/2000/svg"
   xmlns="http://www.w3.org/2000/svg"
   width="14.111112mm"
   height="14.111134mm"
   viewBox="0 0 50.000003 50.00008"
   id="svg5008"
   version="1.1">
  <defs
     id="defs5010" />
  <metadata
     id="metadata5013">
    <rdf:RDF>
      <cc:Work
         rdf:about="">
        <dc:format>image/svg+xml</dc:format>
        <dc:type
           rdf:resource="http://purl.org/dc/dcmitype/StillImage" />
        <dc:title></dc:title>
      </cc:Work>
    </rdf:RDF>
  </metadata>
  <g
     id="layer1"
     transform="matrix(0.38251373,0,0,0.38251373,-156.42079,-381.91453)">
    <circle
       r="65.35714"
       cy="1063.7906"
       cx="474.28571"
       id="circle4360"
       style="opacity:1;fill:#ff2a2a;fill-opacity:1;stroke:none;stroke-width:1;stroke-linecap:round;stroke-linejoin:round;stroke-miterlimit:4;stroke-dasharray:none;stroke-dashoffset:0;stroke-opacity:1" />
    <path
       style="opacity:1;fill:#d40000;fill-opacity:1;stroke:none;stroke-width:1;stroke-linecap:round;stroke-linejoin:round;stroke-miterlimit:4;stroke-dasharray:none;stroke-dashoffset:0;stroke-opacity:1"
       d="m 504.84956,1035.5191 -13.76172,7.539 -3.05273,-1.8652 -1.76953,-0.7754 -1.76953,4.8574 -12.00196,9.1739 -25.2539,5.5547 -2.99219,47.4511 10.51172,18.6973 a 65.35714,65.35714 0 0 0 19.52539,2.9961 65.35714,65.35714 0 0 0 59.83788,-39.1641 l -29.27343,-54.4648 z"
       id="circle4376" />
    <path
       style="fill:#ffffff;fill-rule:evenodd;stroke:none;stroke-width:0.23933718px;stroke-linecap:butt;stroke-linejoin:miter;stroke-opacity:1"
       d="m 441.38165,1034.034 c 2.22475,0 4.29564,0.1381 5.94452,0.1946 9.5096,0.3254 19.46947,5.9315 38.93939,6.1894 l 0,19.8119 c -13.28396,0.176 -20.90076,2.8714 -27.42304,4.5675 -1.93924,0.7808 -4.06854,1.7414 -4.87914,3.4736 -0.23521,0.5027 -0.37875,1.4733 -0.45797,2.7397 l 1.15914,0 c 0.88338,0 1.59411,0.8291 1.59411,1.8588 l 0,4.2127 c 0,1.0297 -0.71073,1.8589 -1.59411,1.8589 l -1.12768,0 c 0.0141,0.3654 0.0266,0.7283 0.0424,1.0958 l 0.64248,0 c 0.88337,0 1.59473,0.8292 1.59473,1.8589 l 0,4.2127 c 0,1.0297 -0.71136,1.8589 -1.59473,1.8589 l -0.22686,0 c 0.10641,1.8961 0.18997,3.4751 0.18997,4.2874 0,3.6106 -0.66377,17.7948 -6.19498,17.279 -5.53123,-0.5158 -3.7615,-2.8368 -4.204,-16.2473 -0.39877,-12.0854 -1.16035,-21.4467 -9.24102,-28.0865 -5.8617,-1.6242 -10.89495,-5.5646 -10.67121,-14.8757 -0.34572,-14.3878 9.5625,-16.2757 17.50806,-16.2903 z m 63.46883,1.4844 0,30.1738 c -8.18622,-0.5158 -3.98231,-5.4159 -16.81476,-5.6738 l 0,-18.8261 c 12.83245,-0.258 8.62854,-5.1581 16.81476,-5.6739 z m -60.40099,1.3335 c -7.82513,0 -13.81967,0.9277 -17.32051,4.7169 l 1.45437,1.8257 c 2.69414,-2.916 8.20385,-4.0519 15.86614,-4.0519 3.63778,0 9.7503,1.4597 16.84743,2.9462 7.09714,1.4865 15.22935,2.9857 23.19908,2.9857 l 0,-2.4914 c -7.73895,0 -15.75817,-1.4669 -22.82097,-2.9462 -7.06281,-1.4793 -13.11959,-2.985 -17.22554,-2.985 z m 78.26718,1.4801 c 1.15567,0 2.16472,0.3642 3.07087,0.9704 0.90616,0.6062 1.72681,1.4228 2.69821,2.3933 l -1.24989,1.7002 c -0.96453,-0.9636 -1.72009,-1.6945 -2.40418,-2.1522 -0.68408,-0.4576 -1.27942,-0.6734 -2.11501,-0.6734 -0.65658,0 -2.17244,1.1073 -3.70548,2.4314 -1.53304,1.3242 -3.11708,2.8666 -5.01164,2.7904 -2.05995,-0.083 -4.24727,-1.6419 -5.64504,-3.7156 l 1.51002,-1.3828 c 1.03597,1.5369 3.05279,2.8147 4.20097,2.8609 0.76805,0.031 2.28124,-1.0373 3.80228,-2.3511 1.52106,-1.3138 3.01644,-2.8715 4.84889,-2.8715 z m -19.64846,1.3476 c -2.46345,0.033 -4.13104,1.2806 -5.6771,2.2108 -1.64914,0.9921 -3.21055,1.7686 -6.30327,1.1677 l -0.3515,2.4576 c 3.54475,0.6886 5.85521,-0.3408 7.63544,-1.4118 1.78023,-1.071 2.9796,-2.0383 5.10297,-1.9258 l 0.0968,-2.4886 c -0.17149,-0.01 -0.33909,-0.013 -0.50334,-0.01 z m 19.86989,7.0984 c 1.15565,0 2.16411,0.3641 3.07027,0.9703 0.90615,0.6062 1.7268,1.4235 2.6982,2.394 l -1.24989,1.6995 c -0.96453,-0.9636 -1.72011,-1.6945 -2.40418,-2.1522 -0.68408,-0.4576 -1.27882,-0.6734 -2.1144,-0.6734 -0.65659,0 -2.17246,1.1073 -3.70548,2.4314 -1.53305,1.3242 -3.11709,2.8666 -5.01164,2.7904 -2.05994,-0.083 -4.24728,-1.6412 -5.64505,-3.7149 l 1.51002,-1.3835 c 1.03597,1.5369 3.0528,2.8155 4.20097,2.8616 0.76805,0.031 2.28122,-1.038 3.80228,-2.3518 1.52107,-1.3137 3.01643,-2.8714 4.8489,-2.8714 z m 0,8.2526 c 1.15565,0 2.16411,0.3642 3.07027,0.9704 0.90615,0.6061 1.7268,1.4228 2.6982,2.3933 l -1.24989,1.7002 c -0.96453,-0.9636 -1.72011,-1.6946 -2.40418,-2.1522 -0.68408,-0.4576 -1.27882,-0.6734 -2.1144,-0.6734 -0.65659,0 -2.17246,1.1073 -3.70548,2.4314 -1.53305,1.3242 -3.11709,2.8666 -5.01164,2.7904 -2.05996,-0.083 -4.24728,-1.6419 -5.64505,-3.7156 l 1.51002,-1.3828 c 1.03597,1.5369 3.0528,2.8147 4.20097,2.8609 0.76805,0.031 2.28122,-1.0373 3.80228,-2.3511 1.52107,-1.3138 3.01643,-2.8715 4.8489,-2.8715 z"
       id="path4317" />
  </g>
</svg>
